<mxfile host="app.diagrams.net" agent="Mozilla/5.0 (Windows NT 10.0; Win64; x64) AppleWebKit/537.36 (KHTML, like Gecko) Chrome/135.0.0.0 Safari/537.36" version="27.0.3">
  <diagram name="Страница — 1" id="rOwHMcFvvc1QKpdBR6ap">
    <mxGraphModel dx="983" dy="621" grid="1" gridSize="10" guides="1" tooltips="1" connect="1" arrows="1" fold="1" page="1" pageScale="1" pageWidth="827" pageHeight="1169" math="0" shadow="0">
      <root>
        <mxCell id="0" />
        <mxCell id="1" parent="0" />
        <mxCell id="zU14zV6I0Zva5NoW6zXl-1" value="Q1" style="shape=step;perimeter=stepPerimeter;whiteSpace=wrap;html=1;fixedSize=1;fillColor=#f5f5f5;fontColor=#333333;strokeColor=#666666;" vertex="1" parent="1">
          <mxGeometry x="130" y="40" width="300" height="30" as="geometry" />
        </mxCell>
        <mxCell id="zU14zV6I0Zva5NoW6zXl-2" value="АБС" style="rounded=0;whiteSpace=wrap;html=1;fillColor=#f5f5f5;fontColor=#333333;strokeColor=#666666;" vertex="1" parent="1">
          <mxGeometry x="40" y="170" width="80" height="160" as="geometry" />
        </mxCell>
        <mxCell id="zU14zV6I0Zva5NoW6zXl-3" value="" style="rounded=0;whiteSpace=wrap;html=1;fillColor=#fff2cc;strokeColor=none;" vertex="1" parent="1">
          <mxGeometry x="130" y="170" width="590" height="160" as="geometry" />
        </mxCell>
        <mxCell id="zU14zV6I0Zva5NoW6zXl-4" value="&lt;div&gt;&lt;span style=&quot;background-color: transparent; color: light-dark(rgb(0, 0, 0), rgb(255, 255, 255));&quot;&gt;Ввод параметров кредитного рейтинга банка&lt;/span&gt;&lt;/div&gt;" style="rounded=0;whiteSpace=wrap;html=1;fillColor=#ffe6cc;strokeColor=#d79b00;" vertex="1" parent="1">
          <mxGeometry x="140" y="220" width="160" height="30" as="geometry" />
        </mxCell>
        <mxCell id="zU14zV6I0Zva5NoW6zXl-5" value="Расчет депозитных ставок" style="rounded=0;whiteSpace=wrap;html=1;fillColor=#ffe6cc;strokeColor=#d79b00;" vertex="1" parent="1">
          <mxGeometry x="315" y="220" width="110" height="30" as="geometry" />
        </mxCell>
        <mxCell id="zU14zV6I0Zva5NoW6zXl-6" value="Базовый слой интеграции с Kafka" style="rounded=0;whiteSpace=wrap;html=1;fillColor=#ffe6cc;strokeColor=#d79b00;" vertex="1" parent="1">
          <mxGeometry x="140" y="180" width="140" height="30" as="geometry" />
        </mxCell>
        <mxCell id="zU14zV6I0Zva5NoW6zXl-7" value="Отправка и прием сообщений" style="rounded=0;whiteSpace=wrap;html=1;fillColor=#ffe6cc;strokeColor=#d79b00;" vertex="1" parent="1">
          <mxGeometry x="297.5" y="180" width="185" height="30" as="geometry" />
        </mxCell>
        <mxCell id="zU14zV6I0Zva5NoW6zXl-8" value="Кол центр" style="rounded=0;whiteSpace=wrap;html=1;fillColor=#f5f5f5;fontColor=#333333;strokeColor=#666666;" vertex="1" parent="1">
          <mxGeometry x="40" y="340" width="80" height="90" as="geometry" />
        </mxCell>
        <mxCell id="zU14zV6I0Zva5NoW6zXl-9" value="" style="rounded=0;whiteSpace=wrap;html=1;fillColor=#fff2cc;strokeColor=none;" vertex="1" parent="1">
          <mxGeometry x="130" y="340" width="590" height="90" as="geometry" />
        </mxCell>
        <mxCell id="zU14zV6I0Zva5NoW6zXl-11" value="Базовый слой интеграции с Kafka" style="rounded=0;whiteSpace=wrap;html=1;fillColor=#ffe6cc;strokeColor=#d79b00;" vertex="1" parent="1">
          <mxGeometry x="140" y="350" width="140" height="30" as="geometry" />
        </mxCell>
        <mxCell id="zU14zV6I0Zva5NoW6zXl-12" value="Отправка и прием сообщений" style="rounded=0;whiteSpace=wrap;html=1;fillColor=#ffe6cc;strokeColor=#d79b00;" vertex="1" parent="1">
          <mxGeometry x="300" y="350" width="140" height="30" as="geometry" />
        </mxCell>
        <mxCell id="zU14zV6I0Zva5NoW6zXl-13" value="&lt;div&gt;&lt;span style=&quot;background-color: transparent; color: light-dark(rgb(0, 0, 0), rgb(255, 255, 255));&quot;&gt;Отображение ставок&lt;/span&gt;&lt;/div&gt;" style="rounded=0;whiteSpace=wrap;html=1;fillColor=#ffe6cc;strokeColor=#d79b00;" vertex="1" parent="1">
          <mxGeometry x="360" y="390" width="160" height="30" as="geometry" />
        </mxCell>
        <mxCell id="zU14zV6I0Zva5NoW6zXl-14" value="Сайт" style="rounded=0;whiteSpace=wrap;html=1;fillColor=#f5f5f5;fontColor=#333333;strokeColor=#666666;" vertex="1" parent="1">
          <mxGeometry x="40" y="440" width="80" height="90" as="geometry" />
        </mxCell>
        <mxCell id="zU14zV6I0Zva5NoW6zXl-15" value="" style="rounded=0;whiteSpace=wrap;html=1;fillColor=#fff2cc;strokeColor=none;" vertex="1" parent="1">
          <mxGeometry x="130" y="440" width="590" height="90" as="geometry" />
        </mxCell>
        <mxCell id="zU14zV6I0Zva5NoW6zXl-16" value="Базовый слой интеграции с Kafka" style="rounded=0;whiteSpace=wrap;html=1;fillColor=#ffe6cc;strokeColor=#d79b00;" vertex="1" parent="1">
          <mxGeometry x="140" y="450" width="140" height="30" as="geometry" />
        </mxCell>
        <mxCell id="zU14zV6I0Zva5NoW6zXl-17" value="Прием сообщений" style="rounded=0;whiteSpace=wrap;html=1;fillColor=#ffe6cc;strokeColor=#d79b00;" vertex="1" parent="1">
          <mxGeometry x="300" y="450" width="110" height="30" as="geometry" />
        </mxCell>
        <mxCell id="zU14zV6I0Zva5NoW6zXl-18" value="&lt;div&gt;&lt;span style=&quot;background-color: transparent; color: light-dark(rgb(0, 0, 0), rgb(255, 255, 255));&quot;&gt;Отображение ставок&lt;/span&gt;&lt;/div&gt;" style="rounded=0;whiteSpace=wrap;html=1;fillColor=#ffe6cc;strokeColor=#d79b00;" vertex="1" parent="1">
          <mxGeometry x="360" y="490" width="160" height="30" as="geometry" />
        </mxCell>
        <mxCell id="zU14zV6I0Zva5NoW6zXl-19" value="Интеграция всех компонентов" style="rounded=0;whiteSpace=wrap;html=1;fillColor=#ffe6cc;strokeColor=#d79b00;" vertex="1" parent="1">
          <mxGeometry x="425" y="260" width="135" height="30" as="geometry" />
        </mxCell>
        <mxCell id="zU14zV6I0Zva5NoW6zXl-20" value="Kafka" style="rounded=0;whiteSpace=wrap;html=1;fillColor=#f5f5f5;fontColor=#333333;strokeColor=#666666;" vertex="1" parent="1">
          <mxGeometry x="40" y="80" width="80" height="80" as="geometry" />
        </mxCell>
        <mxCell id="zU14zV6I0Zva5NoW6zXl-21" value="" style="rounded=0;whiteSpace=wrap;html=1;fillColor=#fff2cc;strokeColor=none;" vertex="1" parent="1">
          <mxGeometry x="130" y="80" width="590" height="80" as="geometry" />
        </mxCell>
        <mxCell id="zU14zV6I0Zva5NoW6zXl-22" value="Деплой и настройка" style="rounded=0;whiteSpace=wrap;html=1;fillColor=#ffe6cc;strokeColor=#d79b00;" vertex="1" parent="1">
          <mxGeometry x="140" y="105" width="140" height="30" as="geometry" />
        </mxCell>
        <mxCell id="zU14zV6I0Zva5NoW6zXl-23" value="Интернет банк" style="rounded=0;whiteSpace=wrap;html=1;fillColor=#f5f5f5;fontColor=#333333;strokeColor=#666666;" vertex="1" parent="1">
          <mxGeometry x="40" y="539.5" width="80" height="140.5" as="geometry" />
        </mxCell>
        <mxCell id="zU14zV6I0Zva5NoW6zXl-24" value="Q2" style="shape=step;perimeter=stepPerimeter;whiteSpace=wrap;html=1;fixedSize=1;fillColor=#f5f5f5;fontColor=#333333;strokeColor=#666666;" vertex="1" parent="1">
          <mxGeometry x="420" y="40" width="300" height="30" as="geometry" />
        </mxCell>
        <mxCell id="zU14zV6I0Zva5NoW6zXl-25" value="" style="rounded=0;whiteSpace=wrap;html=1;fillColor=#fff2cc;strokeColor=none;" vertex="1" parent="1">
          <mxGeometry x="130" y="539.5" width="590" height="140.5" as="geometry" />
        </mxCell>
        <mxCell id="zU14zV6I0Zva5NoW6zXl-26" value="Прототип сервиса управления депозитами" style="rounded=0;whiteSpace=wrap;html=1;fillColor=#ffe6cc;strokeColor=#d79b00;" vertex="1" parent="1">
          <mxGeometry x="140" y="550" width="140" height="30" as="geometry" />
        </mxCell>
        <mxCell id="zU14zV6I0Zva5NoW6zXl-27" value="Базовый слой интеграции с Kafka" style="rounded=0;whiteSpace=wrap;html=1;fillColor=#ffe6cc;strokeColor=#d79b00;" vertex="1" parent="1">
          <mxGeometry x="170" y="590" width="110" height="30" as="geometry" />
        </mxCell>
        <mxCell id="zU14zV6I0Zva5NoW6zXl-28" value="Отправка и прием сообщений" style="rounded=0;whiteSpace=wrap;html=1;fillColor=#ffe6cc;strokeColor=#d79b00;" vertex="1" parent="1">
          <mxGeometry x="293.75" y="590" width="122.5" height="30" as="geometry" />
        </mxCell>
        <mxCell id="zU14zV6I0Zva5NoW6zXl-29" value="Отображение депозитов" style="rounded=0;whiteSpace=wrap;html=1;fillColor=#ffe6cc;strokeColor=#d79b00;" vertex="1" parent="1">
          <mxGeometry x="325" y="630" width="100" height="30" as="geometry" />
        </mxCell>
        <mxCell id="zU14zV6I0Zva5NoW6zXl-31" value="FTP сервер" style="rounded=0;whiteSpace=wrap;html=1;fillColor=#f5f5f5;fontColor=#333333;strokeColor=#666666;" vertex="1" parent="1">
          <mxGeometry x="40" y="750" width="80" height="50" as="geometry" />
        </mxCell>
        <mxCell id="zU14zV6I0Zva5NoW6zXl-32" value="" style="rounded=0;whiteSpace=wrap;html=1;fillColor=#fff2cc;strokeColor=none;" vertex="1" parent="1">
          <mxGeometry x="130" y="750" width="590" height="50" as="geometry" />
        </mxCell>
        <mxCell id="zU14zV6I0Zva5NoW6zXl-34" value="Деплой и настройка" style="rounded=0;whiteSpace=wrap;html=1;fillColor=#ffe6cc;strokeColor=#d79b00;" vertex="1" parent="1">
          <mxGeometry x="390" y="760" width="140" height="30" as="geometry" />
        </mxCell>
        <mxCell id="zU14zV6I0Zva5NoW6zXl-37" value="Сервис данных о ставках" style="rounded=0;whiteSpace=wrap;html=1;fillColor=#f5f5f5;fontColor=#333333;strokeColor=#666666;" vertex="1" parent="1">
          <mxGeometry x="40" y="810" width="80" height="50" as="geometry" />
        </mxCell>
        <mxCell id="zU14zV6I0Zva5NoW6zXl-38" value="" style="rounded=0;whiteSpace=wrap;html=1;fillColor=#fff2cc;strokeColor=none;" vertex="1" parent="1">
          <mxGeometry x="130" y="810" width="590" height="50" as="geometry" />
        </mxCell>
        <mxCell id="zU14zV6I0Zva5NoW6zXl-39" value="Формирование файла и выкладка на FTP" style="rounded=0;whiteSpace=wrap;html=1;fillColor=#ffe6cc;strokeColor=#d79b00;" vertex="1" parent="1">
          <mxGeometry x="450" y="820" width="190" height="30" as="geometry" />
        </mxCell>
        <mxCell id="zU14zV6I0Zva5NoW6zXl-40" value="Базовый слой интеграции с Kafka" style="rounded=0;whiteSpace=wrap;html=1;fillColor=#ffe6cc;strokeColor=#d79b00;" vertex="1" parent="1">
          <mxGeometry x="155" y="820" width="110" height="30" as="geometry" />
        </mxCell>
        <mxCell id="zU14zV6I0Zva5NoW6zXl-42" value="Прием сообщений" style="rounded=0;whiteSpace=wrap;html=1;fillColor=#ffe6cc;strokeColor=#d79b00;" vertex="1" parent="1">
          <mxGeometry x="280" y="820" width="110" height="30" as="geometry" />
        </mxCell>
        <mxCell id="zU14zV6I0Zva5NoW6zXl-44" value="API Gateway" style="rounded=0;whiteSpace=wrap;html=1;fillColor=#f5f5f5;fontColor=#333333;strokeColor=#666666;" vertex="1" parent="1">
          <mxGeometry x="40" y="690" width="80" height="50" as="geometry" />
        </mxCell>
        <mxCell id="zU14zV6I0Zva5NoW6zXl-45" value="" style="rounded=0;whiteSpace=wrap;html=1;fillColor=#fff2cc;strokeColor=none;" vertex="1" parent="1">
          <mxGeometry x="130" y="690" width="590" height="50" as="geometry" />
        </mxCell>
        <mxCell id="zU14zV6I0Zva5NoW6zXl-43" value="Интеграция и интеграционное тестирование" style="rounded=0;whiteSpace=wrap;html=1;fillColor=#ffe6cc;strokeColor=#d79b00;" vertex="1" parent="1">
          <mxGeometry x="580" y="95" width="130" height="635" as="geometry" />
        </mxCell>
        <mxCell id="zU14zV6I0Zva5NoW6zXl-46" value="Деплой и настройка" style="rounded=0;whiteSpace=wrap;html=1;fillColor=#ffe6cc;strokeColor=#d79b00;" vertex="1" parent="1">
          <mxGeometry x="390" y="700" width="170" height="30" as="geometry" />
        </mxCell>
        <mxCell id="zU14zV6I0Zva5NoW6zXl-30" value="Выбор и подтверджление депозитов через СМС код" style="rounded=0;whiteSpace=wrap;html=1;fillColor=#ffe6cc;strokeColor=#d79b00;" vertex="1" parent="1">
          <mxGeometry x="440" y="630" width="160" height="30" as="geometry" />
        </mxCell>
      </root>
    </mxGraphModel>
  </diagram>
</mxfile>
